<svg width="24" height="24" viewBox="0 0 24 24" fill="none" xmlns="http://www.w3.org/2000/svg">
<path d="M24 0H0V24H24V0Z" stroke="white" stroke-width="0.00032"/>
<path d="M18 8.00003C18.003 6.85541 17.6786 5.7338 17.065 4.76754C16.4515 3.80128 15.5743 3.0307 14.537 2.54671C13.4997 2.06273 12.3457 1.88554 11.211 2.03605C10.0763 2.18657 9.00838 2.65851 8.13317 3.39618C7.25796 4.13386 6.61202 5.10649 6.27156 6.1993C5.9311 7.29212 5.91034 8.45952 6.21171 9.56375C6.51309 10.668 7.12404 11.663 7.97246 12.4313C8.82088 13.1996 9.87137 13.7093 11 13.9V21C11 21.2652 11.1053 21.5196 11.2929 21.7071C11.4804 21.8947 11.7348 22 12 22C12.2652 22 12.5195 21.8947 12.7071 21.7071C12.8946 21.5196 13 21.2652 13 21V13.9C14.3997 13.6737 15.6726 12.9549 16.5893 11.8732C17.506 10.7914 18.0063 9.41792 18 8.00003ZM12 12C11.2089 12 10.4355 11.7654 9.7777 11.3259C9.1199 10.8864 8.60721 10.2617 8.30446 9.53076C8.00171 8.79986 7.9225 7.99559 8.07684 7.21967C8.23118 6.44374 8.61214 5.73101 9.17155 5.1716C9.73096 4.61219 10.4437 4.23123 11.2196 4.07689C11.9955 3.92255 12.7998 4.00176 13.5307 4.30451C14.2616 4.60726 14.8863 5.11995 15.3259 5.77775C15.7654 6.43554 16 7.2089 16 8.00003C16 9.06089 15.5786 10.0783 14.8284 10.8285C14.0783 11.5786 13.0608 12 12 12Z" fill="white" stroke="white" stroke-width="0.00032"/>
<path d="M12 10C13.1046 10 14 9.10457 14 8C14 6.89543 13.1046 6 12 6C10.8954 6 10 6.89543 10 8C10 9.10457 10.8954 10 12 10Z" fill="white" stroke="white" stroke-width="0.00032"/>
</svg>
